<?xml version="1.0" encoding="utf-8"?>
<!-- Generator: Adobe Illustrator 26.0.1, SVG Export Plug-In . SVG Version: 6.00 Build 0)  -->
<svg version="1.1" id="Layer_1" xmlns="http://www.w3.org/2000/svg" xmlns:xlink="http://www.w3.org/1999/xlink" x="0px" y="0px"
	 viewBox="0 0 1080 1080" style="enable-background:new 0 0 1080 1080;" xml:space="preserve">
<style type="text/css">
	.st0{fill:#FF0000;}
</style>
<g>
	<g>
		<g>
			<path d="M245.02,668.92c0-1.13-0.5-1.67-1.51-1.64c-2.54,0.1-3.81,0.15-6.35,0.25c-1.01,0.04-1.52,0.64-1.52,1.79
				c-0.06,30.48-0.12,60.96-0.18,91.43c0,1.15,0.5,1.6,1.5,1.35c2.52-0.63,3.78-0.95,6.3-1.57c1-0.25,1.51-0.94,1.51-2.06
				c0.04-13.81,0.06-20.72,0.1-34.53c7.91-1.3,11.87-1.93,19.79-3.14c-0.07,16.92-0.11,25.39-0.19,42.31
				c-3.49,3.99-7.41,7.33-11.75,10c-4.34,2.67-8.61,4.65-12.8,5.86c-4.19,1.21-8.45,1.7-12.77,1.4c-4.32-0.3-8.21-1.66-11.66-4.16
				c0-38.77,0-77.53,0-116.3c3.5-3.58,7.44-6.14,11.81-7.75c4.38-1.61,8.69-2.38,12.93-2.38c4.24,0,8.54,0.77,12.91,2.25
				c4.37,1.48,8.3,3.77,11.78,6.83c-0.07,16.73-0.11,25.09-0.19,41.83c-7.93,0.87-11.9,1.32-19.83,2.25
				C244.96,689.34,244.98,682.53,245.02,668.92z"/>
			<path d="M324.95,755.98c-8.05,1.62-12.08,2.47-20.12,4.24c0.12-17.05,0.18-25.57,0.3-42.62c-3.75,0.51-5.63,0.77-9.37,1.29
				c-0.11,17.37-0.17,26.06-0.28,43.43c-8.03,1.84-12.05,2.8-20.06,4.8c0.19-36.16,0.38-72.31,0.57-108.47
				c3.52-3.13,7.49-5.37,11.92-6.78c4.43-1.41,8.77-2.09,13-2.09c4.24,0,8.56,0.68,12.98,1.98c4.41,1.3,8.36,3.33,11.84,6.05
				C325.46,690.54,325.21,723.26,324.95,755.98z M305.25,701.21c0.1-13.83,0.14-20.74,0.24-34.57c0.01-0.99-0.5-1.48-1.51-1.44
				c-2.54,0.08-3.81,0.12-6.35,0.2c-1.01,0.03-1.52,0.56-1.53,1.57c-0.09,14.09-0.14,21.14-0.23,35.23
				C299.62,701.79,301.49,701.59,305.25,701.21z"/>
			<path d="M355.86,687.91c-0.01,1,0.06,1.6,0.19,1.82c0.14,0.22,0.48,0.44,1.03,0.67c10.9,4.33,16.36,6.4,27.28,10.42
				c0.45,1.69,0.66,4,0.63,6.93c-0.11,12.99-0.17,19.49-0.28,32.48c-3.53,2.98-7.47,5.4-11.82,7.27c-4.35,1.86-8.64,3.17-12.88,3.9
				c-4.24,0.72-8.5,0.87-12.77,0.41c-4.27-0.47-8.15-1.72-11.62-3.81c0.08-10.4,0.13-15.6,0.21-25.99
				c8.01-1.06,12.02-1.56,20.03-2.52c-0.06,6.94-0.09,10.41-0.15,17.36c-0.01,0.9,0.49,1.28,1.51,1.13
				c2.49-0.37,3.73-0.56,6.22-0.92c1.01-0.15,1.52-0.66,1.53-1.56c0.07-8.22,0.11-12.34,0.18-20.56c0.01-1.25-0.05-2.04-0.19-2.38
				c-0.14-0.34-0.71-0.68-1.72-1.03c-10.69-3.83-16.03-5.8-26.7-9.95c-0.18-0.92-0.31-2.12-0.39-3.61c-0.08-1.49-0.12-2.8-0.11-3.92
				c0.12-14.55,0.18-21.83,0.3-36.39c3.52-2.77,7.43-4.76,11.73-6.01c4.29-1.25,8.56-1.86,12.8-1.86c4.24,0,8.52,0.61,12.84,1.78
				c4.32,1.17,8.22,3,11.7,5.47c-0.08,9.83-0.13,14.75-0.21,24.58c-8.02,0.39-12.03,0.59-20.05,1.03c0.06-7.1,0.09-10.66,0.15-17.76
				c0.01-0.89-0.5-1.32-1.51-1.3c-2.49,0.06-3.73,0.09-6.22,0.15c-1.02,0.02-1.52,0.49-1.53,1.39
				C355.98,674.24,355.94,678.79,355.86,687.91z"/>
			<path d="M416.13,741.59c-8.16,0.94-12.24,1.45-20.39,2.54c0.26-30.85,0.52-61.7,0.78-92.55c8.13-0.02,12.19-0.03,20.32-0.05
				C416.61,681.55,416.37,711.57,416.13,741.59z"/>
			<path d="M477.81,736.27c-8.18,0.47-12.26,0.74-20.43,1.37c0.11-17.83,0.16-26.75,0.27-44.58c-3.74-5.07-5.61-7.63-9.34-12.78
				c-0.15,23.25-0.23,34.87-0.38,58.12c-8.11,0.69-12.17,1.08-20.28,1.92c0.22-29.61,0.44-59.22,0.66-88.82
				c6.8-0.01,10.2-0.02,17-0.03c5.04,7.33,7.56,10.95,12.61,18.12c0.04-7.25,0.07-10.88,0.11-18.14c8.07-0.01,12.11-0.02,20.18-0.03
				C478.05,685.36,477.97,702.33,477.81,736.27z"/>
			<path d="M513.97,736.4c-4.27,0.1-8.63-0.28-13.07-1.16c-4.45-0.88-8.43-2.34-11.94-4.43c0.12-29.82,0.18-44.72,0.3-74.54
				c3.51-2.25,7.48-3.9,11.91-4.94c4.43-1.04,8.76-1.56,13-1.56c4.24,0,8.57,0.52,12.99,1.55c4.42,1.03,8.38,2.65,11.89,4.86
				c0,29.4,0,44.09-0.01,73.49c-3.53,2.21-7.51,3.85-11.97,4.93C522.6,735.7,518.24,736.3,513.97,736.4z M517.2,724.52
				c1.02-0.02,1.53-0.41,1.53-1.17c0.04-24.24,0.06-36.37,0.1-60.61c0-0.76-0.51-1.15-1.52-1.14c-2.55,0.01-3.82,0.01-6.36,0.02
				c-1.02,0-1.52,0.39-1.52,1.16c-0.06,24.31-0.09,36.46-0.15,60.77c0,0.77,0.51,1.14,1.53,1.11
				C513.36,724.6,514.64,724.57,517.2,724.52z"/>
			<path class="st0" d="M592.6,737.39c-4.27-0.21-8.63-0.92-13.08-2.12c-4.46-1.2-8.45-2.94-11.98-5.25
				c-0.07-29.52-0.1-44.28-0.16-73.79c3.5-2.21,7.46-3.84,11.88-4.87c4.42-1.03,8.75-1.56,12.99-1.56c4.24,0,8.57,0.52,13,1.58
				c4.43,1.06,8.4,2.73,11.92,5.03c0.17,30.36,0.26,45.54,0.43,75.91c-3.51,2.04-7.48,3.44-11.93,4.22
				C601.22,737.32,596.86,737.6,592.6,737.39z M595.74,725.58c1.02,0.05,1.53-0.32,1.52-1.09c-0.11-24.62-0.16-36.93-0.27-61.54
				c0-0.77-0.51-1.17-1.53-1.18c-2.55-0.02-3.82-0.03-6.36-0.04c-1.02-0.01-1.52,0.38-1.52,1.15c0.09,24.49,0.14,36.73,0.23,61.22
				c0,0.77,0.51,1.18,1.53,1.22C591.91,725.41,593.19,725.46,595.74,725.58z"/>
			<path class="st0" d="M628.18,651.46c15.76,0.02,23.64,0.04,39.39,0.08c0.05,6.23,0.08,9.34,0.13,15.57
				c-7.69-0.17-11.54-0.25-19.23-0.4c0.07,9.01,0.1,13.51,0.17,22.52c6.92,0.31,10.39,0.47,17.31,0.83
				c0.05,5.72,0.07,8.57,0.11,14.29c-6.93-0.48-10.39-0.71-17.32-1.12c0.11,14.7,0.16,22.06,0.27,36.76
				c-8.11-0.82-12.16-1.19-20.28-1.86C628.55,709.24,628.37,680.35,628.18,651.46z"/>
			<path class="st0" d="M722.72,651.69c8.07,0.03,12.11,0.04,20.18,0.07c0.26,32.04,0.52,64.08,0.79,96.12
				c-3.48,2.09-7.42,3.32-11.83,3.77c-4.41,0.44-8.74,0.29-12.98-0.43c-4.24-0.72-8.58-2.04-13.02-3.9
				c-4.44-1.87-8.43-4.29-11.95-7.26c-0.12-13.74-0.18-20.61-0.29-34.35c8.08,0.68,12.12,1.04,20.2,1.8
				c0.1,11.14,0.14,16.71,0.24,27.86c0.01,0.89,0.52,1.41,1.53,1.55c2.55,0.37,3.82,0.55,6.36,0.93c1.01,0.15,1.52-0.22,1.51-1.13
				C723.16,702.7,723.01,685.7,722.72,651.69z"/>
			<path class="st0" d="M779.59,763.31c-4.22-0.97-8.54-2.6-12.96-4.86c-4.42-2.26-8.39-5.1-11.9-8.54
				c-0.24-30.7-0.48-61.4-0.72-92.1c3.48-2.72,7.43-4.74,11.84-6.04c4.41-1.3,8.74-1.98,12.98-1.98c4.24,0,8.57,0.68,13,2.08
				c4.43,1.41,8.4,3.65,11.92,6.78c0.18,33.92,0.36,67.84,0.53,101.76c-3.46,2.24-7.39,3.51-11.78,3.85
				C788.11,764.61,783.8,764.27,779.59,763.31z M782.65,748.45c1.01,0.2,1.51-0.2,1.5-1.21c-0.21-32.12-0.31-48.17-0.52-80.29
				c-0.01-1.01-0.52-1.54-1.53-1.57c-2.54-0.08-3.81-0.12-6.35-0.2c-1.01-0.03-1.52,0.45-1.51,1.44
				c0.22,31.52,0.33,47.27,0.55,78.79c0.01,0.99,0.51,1.59,1.53,1.79C778.85,747.69,780.11,747.94,782.65,748.45z"/>
			<path class="st0" d="M842.97,726.62c1.01,0.17,1.51-0.32,1.51-1.47c-0.06-29.18-0.09-43.76-0.14-72.94
				c8.07,0.04,12.1,0.07,20.17,0.11c0,28.94,0,57.88,0,86.81c-1.92,1.9-4.18,3.28-6.78,4.15c-2.6,0.87-5.32,1.28-8.15,1.26
				c0.02,13.92,0.03,20.87,0.05,34.79c-7.76-2.28-11.64-3.38-19.42-5.51c-0.04-13.32-0.06-19.99-0.11-33.31
				c-2.84-1.12-5.56-2.6-8.18-4.4c-2.62-1.81-4.89-3.9-6.82-6.29c-0.14-31.11-0.21-46.66-0.35-77.77c8.07,0.04,12.1,0.06,20.17,0.1
				c0.08,28.57,0.12,42.86,0.2,71.44c0,1.13,0.51,1.78,1.52,1.95C839.18,725.97,840.44,726.19,842.97,726.62z"/>
		</g>
	</g>
	<g>
		<g>
			<path d="M628.76,425.55l-67.79-39.14c-6.49-3.75-13.73-5.62-20.98-5.62c-7.24,0-14.49,1.87-20.98,5.62l-67.79,39.14
				c-12.98,7.49-20.98,21.34-20.98,36.33v78.28c0,14.99,8,28.84,20.98,36.33l67.79,39.14c6.49,3.75,13.73,5.62,20.98,5.62
				c7.24,0,14.49-1.87,20.98-5.62l67.79-39.14c12.98-7.49,20.98-21.34,20.98-36.33v-78.28
				C649.74,446.89,641.74,433.05,628.76,425.55z M533,599.4c0,3.56-3.84,5.94-6.93,4.17c-0.02-0.01-0.04-0.03-0.07-0.04
				l-67.79-39.14c-8.65-5-13.99-14.23-13.99-24.22v-78.28c0-0.03,0-0.05,0-0.08c0.01-3.56,3.99-5.69,7.07-3.92l79.32,45.8
				c1.47,0.85,2.38,2.42,2.38,4.12V599.4z M537.61,491.58l-79.32-45.8c-3.08-1.78-3.22-6.3-0.14-8.08c0.02-0.01,0.04-0.03,0.07-0.04
				l67.79-39.14c4.25-2.45,9.08-3.75,13.99-3.75s9.74,1.3,13.99,3.75l67.79,39.14c0.02,0.01,0.04,0.03,0.07,0.04
				c3.07,1.79,2.93,6.31-0.14,8.08l-79.32,45.8C540.9,492.43,539.09,492.43,537.61,491.58z M635.76,540.16
				c0,9.99-5.33,19.23-13.99,24.22l-67.79,39.14c-0.02,0.01-0.04,0.03-0.07,0.04c-3.09,1.77-6.93-0.61-6.93-4.17v-91.59
				c0-1.7,0.91-3.27,2.38-4.12l79.32-45.8c3.08-1.78,7.06,0.36,7.07,3.92c0,0.03,0,0.05,0,0.08V540.16z"/>
			<path class="st0" d="M608.18,495.69c-7.05,2.27-12.12,8.56-17.39,17.49c-0.54-0.75-0.84-1.71-1.53-2.04
				c-4.56-2.17-9.94-1.33-16.26,4.27c-6.13,5.44-9.98,11.97-11.28,19.3c-1.33,7.47,0.93,12.12,4.35,15.71
				c6.11,6.39,14.82,8.51,24.06,9.69c1.6,0.13,2.25-1.02,2.91-1.93c6.31-8.73,13.03-17.32,18.59-26.4
				c3.82-6.24,6.87-13.37,8.69-19.8C623.93,499.3,618.23,492.45,608.18,495.69z"/>
			<path d="M491.29,502.03c-1.17-1.79-2.04-3.73-2.99-5.48c-5.55,2.16-10.46,4.07-15.36,5.98c-2.25,0.88-4.62,1.6-6.73,2.7
				c-4.44,2.31-6.58,6.75-5.88,13.81c0.93,9.41,7.56,18.42,16.27,21.67c2.64,0.99,5.14,1.13,8.29,1.79
				c-1.88,4.43-3.69,8.67-5.48,12.88c5.68,3.23,11.19,6.35,16.7,9.48c-1.86-6.43-3.66-12.64-5.77-19.95
				c1.55,1.74,2.11,2.35,2.65,2.97c10.99,12.74,21.97,12.87,22.31,0.36c0.2-7.48-3.59-15.17-8.74-23.02
				C501.47,517.49,496.33,509.78,491.29,502.03z"/>
			<path class="st0" d="M510.64,464.07c17.56-1.68,34.51-3.3,51.66-4.93c2.34-12.07,4.65-23.95,7.04-36.22
				c-17.47,1.66-34.31,3.27-51.66,4.92C515.33,439.94,513.02,451.83,510.64,464.07z"/>
		</g>
		<path d="M550.03,348.2c0,18.04-4.49,18.84-10.04,18.84c-5.54,0-10.04-0.8-10.04-18.84s4.49-46.5,10.04-46.5
			C545.54,301.7,550.03,330.16,550.03,348.2z"/>
		<path class="st0" d="M463.61,348.04c13.6,23.56,14.58,34.25,9.78,37.02s-13.57-3.42-27.17-26.98
			c-13.6-23.56-26.9-55.57-22.09-58.35C428.93,296.96,450.01,324.48,463.61,348.04z"/>
		<path d="M412.97,415.75c15.63,9.02,14.07,13.31,11.3,18.11c-2.77,4.8-5.71,8.29-21.34-0.73c-15.63-9.02-38.02-27.14-35.25-31.94
			C370.46,396.39,397.35,406.72,412.97,415.75z"/>
		<path class="st0" d="M369.62,490.51c27.21,0,36.95,4.49,36.95,10.04s-9.74,10.04-36.95,10.04c-27.21,0-61.58-4.49-61.58-10.04
			C308.05,495,342.42,490.51,369.62,490.51z"/>
		<path d="M402.94,568.22c15.63-9.02,18.56-5.53,21.34-0.73c2.77,4.8,4.33,9.09-11.3,18.11c-15.63,9.02-42.52,19.36-45.29,14.56
			C364.92,595.36,387.31,577.24,402.94,568.22z"/>
		<path d="M667.03,585.59c-15.63-9.02-14.07-13.31-11.3-18.11s5.71-8.29,21.34,0.73c15.63,9.02,38.02,27.14,35.25,31.94
			C709.54,604.95,682.65,594.62,667.03,585.59z"/>
		<path class="st0" d="M710.38,510.83c-27.21,0-36.95-4.49-36.95-10.04c0-5.54,9.74-10.04,36.95-10.04s61.58,4.49,61.58,10.04
			S737.58,510.83,710.38,510.83z"/>
		<path d="M677.06,433.12c-15.63,9.02-18.56,5.53-21.34,0.73s-4.33-9.09,11.3-18.11c15.63-9.02,42.52-19.36,45.29-14.56
			C715.08,405.98,692.69,424.1,677.06,433.12z"/>
		<path class="st0" d="M633.99,358.2c-13.6,23.56-22.37,29.75-27.17,26.98c-4.8-2.77-3.82-13.46,9.78-37.02
			c13.6-23.56,34.68-51.08,39.48-48.31C660.88,302.63,647.59,334.64,633.99,358.2z"/>
	</g>
</g>
<g>
</g>
<g>
</g>
<g>
</g>
<g>
</g>
<g>
</g>
<g>
</g>
<g>
</g>
<g>
</g>
<g>
</g>
<g>
</g>
<g>
</g>
<g>
</g>
<g>
</g>
<g>
</g>
<g>
</g>
</svg>
