<?xml version="1.0" encoding="utf-8"?>
<!-- Generator: Adobe Illustrator 26.1.0, SVG Export Plug-In . SVG Version: 6.00 Build 0)  -->
<svg version="1.1" id="Layer_1" xmlns="http://www.w3.org/2000/svg" xmlns:xlink="http://www.w3.org/1999/xlink" x="0px" y="0px"
	 viewBox="0 0 1280 1280" enable-background="new 0 0 1280 1280" xml:space="preserve">
<g>
	<path d="M268.786,938.535v0.237h152.348v-0.237H268.786z"/>
	<rect x="233.246" y="341.228" fill="#F20040" width="187.888" height="597.307"/>
	<path d="M1046.754,635.379v303.274H884.692V633.128c0-28.905-4.502-51.533-13.742-67.881
		c-9.122-16.348-21.561-24.404-37.436-24.404c-15.874,0-28.314,8.056-37.435,24.404c-9.241,16.348-13.742,38.976-13.742,67.881v6.99
		c0,86.362-29.498,157.679-88.258,214.069c-22.271,21.324-46.794,38.62-73.804,51.888c-44.069,21.797-94.536,32.697-151.163,32.697
		h-12.439V771.734c40.16-1.066,72.383-13.505,96.55-37.08c24.167-23.575,36.251-55.086,36.251-94.299
		c0-39.331-12.084-70.725-36.251-94.418c-24.168-23.575-56.39-35.895-96.55-36.961V341.464h12.439
		c86.125,0,157.797,25.115,215.017,75.582c38.857-50.23,88.613-75.463,149.386-75.463c63.024,0,114.32,27.129,153.888,81.505
		C1026.971,477.464,1046.754,548.188,1046.754,635.379z"/>
</g>
</svg>
