<?xml version="1.0" encoding="utf-8"?>
<!-- Generator: Adobe Illustrator 26.1.0, SVG Export Plug-In . SVG Version: 6.00 Build 0)  -->
<svg version="1.1" id="Layer_1" xmlns="http://www.w3.org/2000/svg" xmlns:xlink="http://www.w3.org/1999/xlink" x="0px" y="0px"
	 viewBox="0 0 1280 1280" enable-background="new 0 0 1280 1280" xml:space="preserve">
<g>
	<g>
		<rect x="363.175" y="301.271" fill="#F20040" width="127.87" height="406.509"/>
		<path fill="#FFFFFF" d="M916.824,501.461V707.86H806.53V499.929c0-19.672-3.064-35.071-9.352-46.198
			c-6.208-11.126-14.674-16.609-25.478-16.609c-10.803,0-19.269,5.482-25.477,16.609c-6.289,11.126-9.353,26.526-9.353,46.198v4.757
			c0,58.775-20.075,107.311-60.065,145.689c-15.157,14.512-31.846,26.284-50.229,35.314
			c-29.992,14.835-64.338,22.252-102.877,22.252h-8.465V594.26c27.332-0.725,49.261-9.191,65.709-25.235
			c16.447-16.044,24.671-37.49,24.671-64.177c0-26.767-8.224-48.133-24.671-64.258c-16.448-16.044-38.377-24.429-65.709-25.155
			V301.432h8.465c58.614,0,107.392,17.092,146.334,51.438c26.445-34.185,60.307-51.358,101.667-51.358
			c42.892,0,77.803,18.463,104.731,55.47C903.36,393.989,916.824,442.121,916.824,501.461z"/>
	</g>
	
		<text transform="matrix(1 0 0 1 248.3627 931.2256)" fill="#FFFFFF" font-family="'Montserrat-ExtraLight'" font-size="182.7123px">creatives</text>
</g>
</svg>
